<?xml version="1.0" encoding="iso-8859-1"?>
<!-- Generator: Adobe Illustrator 19.0.0, SVG Export Plug-In . SVG Version: 6.00 Build 0)  -->
<svg version="1.1" id="Layer_1" xmlns="http://www.w3.org/2000/svg" xmlns:xlink="http://www.w3.org/1999/xlink" x="0px" y="0px"
	 viewBox="0 0 504.312 504.312" style="enable-background:new 0 0 504.312 504.312;" xml:space="preserve">
<g>
	<g>
		<path d="M344.484,487.525h-51.141c-5.002-47.272-7.613-95.224-7.613-142.688h8.393c13.883,0,25.18-11.298,25.18-25.18
			s-11.298-25.18-25.18-25.18h-8.393V270.63c29.604-12.985,50.361-42.538,50.361-76.876s-20.757-63.899-50.361-76.876V84.639
			c0-4.642-3.76-8.393-8.393-8.393h-16.787V8.393c0-4.642-3.76-8.393-8.393-8.393s-8.393,3.752-8.393,8.393v67.853h-16.787
			c-4.633,0-8.393,3.752-8.393,8.393v32.239c-29.604,12.976-50.361,42.538-50.361,76.876s20.757,63.891,50.361,76.876v23.846h-8.393
			c-13.883,0-25.18,11.298-25.18,25.18s11.298,25.18,25.18,25.18h8.393c0,47.331-2.602,95.156-7.621,142.688h-51.133
			c-4.633,0-8.393,3.752-8.393,8.393c0,4.642,3.76,8.393,8.393,8.393h58.754h67.148h58.754c4.633,0,8.393-3.752,8.393-8.393
			C352.877,491.277,349.117,487.525,344.484,487.525z M235.369,93.033h33.574v18.482c-5.422-1.108-11.037-1.695-16.787-1.695
			s-11.365,0.588-16.787,1.695V93.033z M277.336,328.049h-50.361h-16.787c-4.625,0-8.393-3.76-8.393-8.393
			c0-4.633,3.769-8.393,8.393-8.393h16.787h50.361h16.787c4.625,0,8.393,3.76,8.393,8.393c0,4.633-3.769,8.393-8.393,8.393H277.336z
			"/>
	</g>
</g>
<g>
</g>
<g>
</g>
<g>
</g>
<g>
</g>
<g>
</g>
<g>
</g>
<g>
</g>
<g>
</g>
<g>
</g>
<g>
</g>
<g>
</g>
<g>
</g>
<g>
</g>
<g>
</g>
<g>
</g>
</svg>
