<?xml version="1.0" encoding="utf-8"?>
<!-- Generator: Adobe Illustrator 16.0.0, SVG Export Plug-In . SVG Version: 6.00 Build 0)  -->
<!DOCTYPE svg PUBLIC "-//W3C//DTD SVG 1.1//EN" "http://www.w3.org/Graphics/SVG/1.1/DTD/svg11.dtd">
<svg version="1.1"
	 id="Ebene_1" xmlns:cc="http://creativecommons.org/ns#" xmlns:dc="http://purl.org/dc/elements/1.1/" xmlns:rdf="http://www.w3.org/1999/02/22-rdf-syntax-ns#"
	 xmlns="http://www.w3.org/2000/svg" xmlns:xlink="http://www.w3.org/1999/xlink" x="0px" y="0px" width="24px" height="24px"
	 viewBox="0 0 24 24" enable-background="new 0 0 24 24" xml:space="preserve">
<g transform="translate(0 -1028.4)">
	<path fill="#E74C3C" d="M12.125,1028.588c-4.35,0-7.875,3.525-7.875,7.875c0,1.399,0.376,2.707,1.015,3.845
		c0.106,0.189,0.217,0.375,0.338,0.553l6.521,11.352l6.521-11.352c0.1-0.148,0.187-0.305,0.277-0.461l0.061-0.092
		c0.64-1.138,1.016-2.446,1.016-3.845C20,1032.113,16.474,1028.588,12.125,1028.588z M12.125,1032.525
		c2.175,0,3.938,1.763,3.938,3.938s-1.763,3.938-3.938,3.938c-2.174,0-3.938-1.763-3.938-3.938S9.951,1032.525,12.125,1032.525z"/>
	<path fill="#C0392B" d="M12.125,1031.541c-2.718,0-4.922,2.204-4.922,4.922c0,2.718,2.204,4.922,4.922,4.922
		c2.719,0,4.922-2.204,4.922-4.922C17.047,1033.744,14.844,1031.541,12.125,1031.541z M12.125,1033.509
		c1.631,0,2.953,1.322,2.953,2.953s-1.322,2.953-2.953,2.953c-1.631,0-2.953-1.322-2.953-2.953S10.494,1033.509,12.125,1033.509z"/>
</g>
</svg>
