<?xml version="1.0"?>
<svg xmlns="http://www.w3.org/2000/svg" viewBox="0 0 50 50">
    <path d="M 7.5 2 C 6.6715729 2 6 2.6715729 6 3.5 C 6 3.7226398 6.0692303 3.9350094 6.15625 4.125 C 3.2138155 4.7443211 1 7.3780294 1 10.5 C 1 11.691 1.46425 12.479 2.15625 13 L 12.78125 13 C 13.51225 12.478 14 11.69 14 10.5 C 14 7.3780294 11.786184 4.7443211 8.84375 4.125 C 8.9307697 3.9350094 9 3.7226398 9 3.5 C 9 2.6715729 8.3284271 2 7.5 2 z M 22.5 2 C 21.671573 2 21 2.6715729 21 3.5 C 21 3.7226398 21.06923 3.9350094 21.15625 4.125 C 18.213816 4.7443211 16 7.3780294 16 10.5 C 16 11.691 16.46425 12.479 17.15625 13 L 27.78125 13 C 28.51225 12.478 29 11.69 29 10.5 C 29 7.3780294 26.786184 4.7443211 23.84375 4.125 C 23.93077 3.9350094 24 3.7226398 24 3.5 C 24 2.6715729 23.328427 2 22.5 2 z M 2 15 L 2 47 C 2 47.553 2.448 48 3 48 L 6.1875 48 C 6.0755 47.686 6 47.352 6 47 L 6 35 L 6 34.6875 L 6.03125 34.59375 C 6.06225 34.37775 6.1075 34.1515 6.1875 33.9375 C 6.2135 33.8685 6.25225 33.813 6.28125 33.75 C 6.31125 33.676 6.38075 33.54625 6.46875 33.40625 L 7.96875 31 L 4 31 L 4 29 L 9.21875 29 L 11.46875 25.40625 C 11.83475 24.82125 12.374 24.4105 13 24.1875 L 13 15 L 2 15 z M 17 15 L 17 24 L 28 24 L 28 15 L 17 15 z M 7.5 16 C 8.328 16 9 16.672 9 17.5 L 9 20 L 11 20 L 11 22 L 4 22 L 4 20 L 6 20 L 6 17.5 C 6 16.672 6.672 16 7.5 16 z M 22.5 16 C 23.328 16 24 16.672 24 17.5 L 24 20 L 26 20 L 26 22 L 19 22 L 19 20 L 21 20 L 21 17.5 C 21 16.672 21.672 16 22.5 16 z M 7.5 24 C 8.328 24 9 24.672 9 25.5 C 9 26.328 8.328 27 7.5 27 C 6.672 27 6 26.328 6 25.5 C 6 24.672 6.672 24 7.5 24 z M 14 26 C 13.655 26 13.33925 26.17675 13.15625 26.46875 L 8.4375 34 L 47.5625 34 L 42.84375 26.46875 C 42.66075 26.17675 42.345 26 42 26 L 14 26 z M 8 36 L 8 47 C 8 47.553 8.448 48 9 48 L 13 48 L 13 39.5 C 13 38.672 13.672 38 14.5 38 C 15.328 38 16 38.672 16 39.5 L 16 48 L 20 48 L 20 39.5 C 20 38.672 20.672 38 21.5 38 C 22.328 38 23 38.672 23 39.5 L 23 48 L 27 48 L 27 39.5 C 27 38.672 27.672 38 28.5 38 C 29.328 38 30 38.672 30 39.5 L 30 48 L 34 48 L 34 39.5 C 34 38.672 34.672 38 35.5 38 C 36.328 38 37 38.672 37 39.5 L 37 48 L 41 48 L 41 39.5 C 41 38.672 41.672 38 42.5 38 C 43.328 38 44 38.672 44 39.5 L 44 48 L 47 48 C 47.553 48 48 47.553 48 47 L 48 36 L 8 36 z"/>
</svg>
