<svg xmlns="http://www.w3.org/2000/svg" viewBox="0 0 28 28" enable-background="new 0 0 28 28"><style type="text/css">.st0{fill:#333333;}</style><circle class="st0" cx="9.149" cy="12.388" r="1"/><circle class="st0" cx="14" cy="12.388" r="1"/><circle class="st0" cx="18.851" cy="12.388" r="1"/><path class="st0" d="M4.102 24.985c-.139.228-.127.516.028.732.126.176.329.277.54.277l.145-.016c.355-.079 8.769-1.952 12.675-3.3 4.292-1.481 7.176-5.517 7.176-10.043 0-5.862-4.784-10.631-10.665-10.631-.759 0-1.529.08-2.289.238-4.1.853-7.385 4.188-8.176 8.299-.722 3.761.503 7.44 3.285 9.956l-2.719 4.488zm.741-14.193c.69-3.59 3.56-6.502 7.14-7.247.671-.139 1.35-.21 2.018-.21 5.147 0 9.335 4.172 9.335 9.301 0 3.959-2.523 7.49-6.279 8.787-2.851.984-8.339 2.295-11.004 2.911l2.199-3.63c.173-.284.108-.651-.148-.86-2.708-2.203-3.927-5.587-3.261-9.052z"/></svg>