<svg xmlns="http://www.w3.org/2000/svg" viewBox="0 0 28 28" enable-background="new 0 0 28 28"><style type="text/css">.st0{fill:#333333;}</style><path class="st0" d="M2.396 12.663l8.457 3.816c.297.133.534.371.668.667l3.814 8.457c.107.239.346.392.606.392h.011c.265-.004.502-.166.604-.411l9.388-22.66c.104-.248.046-.534-.143-.724-.191-.19-.476-.248-.726-.144l-22.66 9.387c-.245.102-.406.339-.41.604s.149.507.391.616zm21.706-8.764l-8.186 19.756-3.183-7.057c-.268-.593-.741-1.066-1.333-1.332l-7.056-3.184 19.758-8.183z"/></svg>