<svg xmlns="http://www.w3.org/2000/svg" viewBox="0 0 28 28" enable-background="new 0 0 28 28"><style type="text/css">.st0{fill:#333333;}</style><path class="st0" d="M14 13.006c2.021 0 3.665-1.644 3.665-3.665s-1.644-3.665-3.665-3.665-3.665 1.644-3.665 3.665 1.644 3.665 3.665 3.665zm0-6c1.287 0 2.335 1.047 2.335 2.335s-1.048 2.335-2.335 2.335-2.335-1.047-2.335-2.335 1.048-2.335 2.335-2.335zM19.021 14.586l.84-1.235c1.562-2.199 1.741-4.97.479-7.414-1.252-2.427-3.672-3.937-6.34-3.933-2.828 0-5.216 1.63-6.404 4.054-1.186 2.42-.983 5.146.535 7.282l.848 1.246c-4.269.951-6.974 3.03-6.974 5.438 0 3.348 5.269 5.971 11.995 5.971s11.995-2.623 11.995-5.971c0-2.407-2.704-4.487-6.974-5.438zm-10.23-7.942c.97-1.979 2.928-3.309 5.212-3.309 2.157 0 4.133 1.231 5.156 3.213 1.028 1.993.886 4.249-.39 6.044l-4.171 6.132c-.553.862-.645.862-1.197 0l-4.179-6.143c-1.238-1.744-1.399-3.963-.431-5.937zm5.209 18.021c-6.38 0-10.665-2.399-10.665-4.641 0-1.787 2.634-3.503 6.454-4.247l2.493 3.665c.312.487.784 1.223 1.719 1.223s1.406-.736 1.719-1.223l2.493-3.665c3.819.744 6.454 2.46 6.454 4.247-.002 2.241-4.287 4.641-10.667 4.641z"/></svg>