<svg version="1.2" baseProfile="tiny" xmlns="http://www.w3.org/2000/svg" viewBox="0 0 28 28"><g fill="#333"><path d="M14 10.335c-2.021 0-3.665 1.644-3.665 3.665s1.645 3.665 3.665 3.665 3.665-1.644 3.665-3.665-1.644-3.665-3.665-3.665zm0 6c-1.287 0-2.335-1.047-2.335-2.335s1.048-2.335 2.335-2.335 2.335 1.047 2.335 2.335-1.048 2.335-2.335 2.335zM24 13.335h-3.368c-.151-1.529-.819-2.947-1.919-4.048s-2.519-1.769-4.048-1.919v-3.368c0-.367-.298-.665-.665-.665s-.665.298-.665.665v3.368c-1.529.151-2.947.819-4.049 1.919-1.13 1.13-1.767 2.569-1.914 4.048h-3.372c-.367 0-.665.298-.665.665s.298.665.665.665h3.372c.147 1.479.785 2.918 1.915 4.048 1.101 1.101 2.519 1.769 4.048 1.919v3.368c0 .367.298.665.665.665s.665-.298.665-.665v-3.368c1.529-.151 2.947-.819 4.047-1.919 1.102-1.101 1.77-2.519 1.92-4.048h3.368c.367 0 .665-.298.665-.665s-.298-.665-.665-.665zm-6.227 4.437c-1.008 1.008-2.348 1.562-3.772 1.562s-2.765-.555-3.772-1.562c-2.08-2.08-2.08-5.465-.001-7.545 1.008-1.007 2.347-1.562 3.772-1.562s2.765.555 3.772 1.562 1.562 2.348 1.562 3.772-.553 2.766-1.561 3.773z"/></g></svg>