<svg xmlns="http://www.w3.org/2000/svg" viewBox="0 0 28 28" enable-background="new 0 0 28 28"><style type="text/css">.st0{fill:#333333;}</style><path class="st0" d="M24.895 18.486c-.835-.674-3.462-2.46-3.882-2.758-.503-.356-1.185-.766-1.994-.766-.335 0-.67.071-.995.21-.781.336-1.271 1.039-1.704 1.659l-.224.328c-.486.487-1.336.487-1.822 0l-3.426-3.426c-.503-.502-.503-1.32-.069-1.762l.397-.284c.62-.433 1.322-.923 1.658-1.704.516-1.199-.006-2.198-.518-2.935-.239-.345-2.051-3.013-2.796-3.937-.74-.916-1.547-1.109-2.094-1.109-2.271 0-4.269 3.126-4.832 4.552-1.269 3.22-.429 7.076 2.09 9.595l7.173 7.173c1.7 1.7 4.062 2.675 6.479 2.675 1.028 0 2.026-.177 2.965-.527 1.315-.489 4.318-2.296 4.674-4.479.106-.658.005-1.629-1.08-2.505zm-.235 2.293c-.214 1.314-2.407 2.919-3.823 3.446-.791.294-1.632.443-2.502.443-2.067 0-4.085-.833-5.538-2.286l-7.173-7.173c-2.15-2.15-2.87-5.432-1.793-8.167.598-1.513 2.294-3.71 3.595-3.71.379 0 .726.201 1.06.615.711.881 2.497 3.512 2.739 3.86.487.702.596 1.165.387 1.651-.186.433-.699.791-1.196 1.138-.152.105-.3.209-.507.374-1.021 1.021-1.022 2.683-.002 3.704l3.427 3.426c.991.989 2.654 1.058 3.765-.071l.312-.438c.347-.497.705-1.011 1.138-1.197.51-.218.953-.108 1.695.418.427.303 3.023 2.068 3.816 2.708.638.516.648.966.6 1.259z"/></svg>