<svg xmlns="http://www.w3.org/2000/svg" viewBox="0 0 28 28"><defs><style>.cls-1{fill:#333;}</style></defs><title>to_go_cup</title><path class="cls-1" d="M22 4.89l-.64-1.89a1.67 1.67 0 0 0-1.58-1.14h-11.56a1.67 1.67 0 0 0-1.58 1.14l-.64 1.89a2.66 2.66 0 0 0-2.17 2.61v1a.67.67 0 0 0 .67.67h1.11a.33.33 0 0 1 .33.29l1.9 16.12a.67.67 0 0 0 .66.59h11a.67.67 0 0 0 .66-.59l1.9-16.12a.33.33 0 0 1 .33-.29h1.11a.67.67 0 0 0 .67-.67v-1a2.66 2.66 0 0 0-2.17-2.61zm-14.1-1.5a.35.35 0 0 1 .32-.22h11.56a.35.35 0 0 1 .32.22l.48 1.44h-13.16zm12.84 5.92l-1.83 15.52h-9.82l-1.83-15.52a.59.59 0 0 0 0-.14h13.5a.59.59 0 0 0-.02.14zm-15.57-1.48v-.33a1.32 1.32 0 0 1 1.33-1.33h15a1.32 1.32 0 0 1 1.33 1.33v.33z"/></svg>