<svg xmlns="http://www.w3.org/2000/svg" viewBox="0 0 28 28" enable-background="new 0 0 28 28"><style type="text/css">.st0{fill:#333333;}</style><path class="st0" d="M14 13.995c3.306 0 5.995-2.689 5.995-5.995s-2.689-5.995-5.995-5.995-5.995 2.689-5.995 5.995 2.689 5.995 5.995 5.995zm0-10.66c2.572 0 4.665 2.093 4.665 4.665s-2.093 4.665-4.665 4.665-4.665-2.093-4.665-4.665 2.093-4.665 4.665-4.665zM7 25.995h14c1.47 0 2.665-1.195 2.665-2.665v-1c0-3.675-2.99-6.665-6.665-6.665h-6c-3.675 0-6.665 2.99-6.665 6.665v1c0 1.47 1.195 2.665 2.665 2.665zm-1.335-3.665c0-2.942 2.394-5.335 5.335-5.335h6c2.941 0 5.335 2.393 5.335 5.335v1c0 .736-.599 1.335-1.335 1.335h-14c-.736 0-1.335-.599-1.335-1.335v-1z"/></svg>