<svg id="Icons" xmlns="http://www.w3.org/2000/svg" viewBox="0 0 28 28">
  <defs>
    <style>
      .cls-1{fill:#333}
    </style>
  </defs>
  <path class="cls-1" d="M25.8 24.864L18.39 17.45a9.366 9.366 0 1 0-.94.94l7.41 7.415a.665.665 0 0 0 .941-.941zm-14.458-5.513a8.01 8.01 0 1 1 8.007-8.01 8.017 8.017 0 0 1-8.007 8.01z"/>
  <path class="cls-1" d="M16.653 10.475h-4.835V5.64a.665.665 0 0 0-1.33 0v4.835H5.653a.665.665 0 1 0 0 1.33h4.835v4.836a.665.665 0 0 0 1.33 0v-4.835h4.835a.665.665 0 1 0 0-1.33z"/>
</svg>
